M48
; DRILL file KiCad 10.0.1 date 2026-09-15T09:20:59
; FORMAT={-:-/ absolute / metric / decimal}
; #@! TF.CreationDate,2026-09-15T09:20:59+02:00
; #@! TF.GenerationSoftware,Kicad,Pcbnew,10.0.1
; #@! TF.FileFunction,Plated,1,2,PTH
FMAT,2
METRIC
; #@! TA.AperFunction,Plated,PTH,ViaDrill
T1C0.300
; #@! TA.AperFunction,Plated,PTH,ComponentDrill
T2C0.300
; #@! TA.AperFunction,Plated,PTH,ComponentDrill
T3C0.400
; #@! TA.AperFunction,Plated,PTH,ComponentDrill
T4C0.600
; #@! TA.AperFunction,Plated,PTH,ComponentDrill
T5C0.800
; #@! TA.AperFunction,Plated,PTH,ComponentDrill
T6C1.000
; #@! TA.AperFunction,Plated,PTH,ComponentDrill
T7C1.100
; #@! TA.AperFunction,Plated,PTH,ComponentDrill
T8C1.500
; #@! TA.AperFunction,Plated,PTH,ComponentDrill
T9C1.800
%
G90
G05
T1
X4.0Y-6.0
X4.0Y-15.0
X4.0Y-24.0
X4.0Y-33.0
X4.0Y-42.0
X4.0Y-51.0
X4.0Y-60.0
X4.0Y-69.0
X4.0Y-78.0
X4.0Y-87.0
X4.0Y-96.0
X4.0Y-105.0
X4.0Y-114.0
X4.0Y-123.0
X4.0Y-132.0
X4.0Y-141.0
X4.0Y-150.0
X4.0Y-159.0
X4.0Y-168.0
X4.0Y-177.0
X4.0Y-186.0
X4.0Y-195.0
X4.0Y-204.0
X13.0Y-6.0
X13.0Y-96.0
X13.0Y-105.0
X13.0Y-114.0
X13.0Y-123.0
X13.0Y-132.0
X13.0Y-141.0
X13.0Y-150.0
X13.0Y-159.0
X13.0Y-168.0
X13.0Y-177.0
X13.0Y-186.0
X13.0Y-195.0
X13.0Y-204.0
X19.4Y-117.5
X21.0Y-117.5
X22.0Y-15.0
X22.0Y-69.0
X22.0Y-78.0
X22.0Y-87.0
X22.0Y-96.0
X22.0Y-105.0
X22.0Y-114.0
X22.0Y-132.0
X22.0Y-141.0
X22.0Y-159.0
X22.0Y-168.0
X22.0Y-177.0
X22.0Y-195.0
X22.0Y-204.0
X24.5Y-5.6
X25.5Y-4.4
X28.5Y-8.18
X28.5Y-9.5
X29.826Y-70.174
X30.032Y-67.065
X30.351Y-3.501
X31.0Y-15.0
X31.0Y-78.0
X31.0Y-87.0
X31.0Y-96.0
X31.0Y-105.0
X31.0Y-114.0
X31.0Y-123.0
X31.0Y-132.0
X31.0Y-141.0
X31.0Y-168.0
X31.0Y-177.0
X31.0Y-186.0
X31.0Y-195.0
X31.0Y-204.0
X31.269Y-70.769
X31.85Y-4.5
X31.951Y-8.951
X32.0Y-3.5
X32.0Y-72.0
X32.25Y-1.6
X32.25Y-2.5
X32.269Y-69.769
X32.5Y-31.826
X32.618Y-71.118
X33.049Y-9.549
X33.85Y-2.0
X33.85Y-3.0
X35.0Y-70.0
X35.0Y-190.35
X35.0Y-194.15
X35.099Y-3.401
X35.5Y-5.5
X35.674Y-31.674
X36.599Y-4.901
X37.165Y-5.466
X39.5Y-150.5
X40.0Y-6.0
X40.0Y-78.0
X40.0Y-87.0
X40.0Y-96.0
X40.0Y-105.0
X40.0Y-114.0
X40.0Y-132.0
X40.0Y-141.0
X40.0Y-159.0
X40.0Y-168.0
X40.0Y-177.0
X40.0Y-186.0
X40.0Y-195.0
X40.0Y-204.0
X40.434Y-24.934
X41.0Y-24.0
X41.0Y-25.5
X41.0Y-89.737
X41.0Y-91.0
X41.5Y-150.5
X41.706Y-89.361
X42.0Y-69.135
X42.174Y-90.589
X42.6Y-24.7
X42.6Y-25.5
X44.0Y-6.2
X44.0Y-87.0
X44.074Y-24.074
X44.382Y-88.382
X44.5Y-145.5
X44.5Y-71.63
X44.826Y-89.674
X45.0Y-83.775
X46.5Y-75.0
X46.5Y-145.5
X47.293Y-82.293
X47.5Y-29.4
X47.5Y-31.1
X47.582Y-84.103
X48.401Y-69.901
X48.5Y-5.2
X48.5Y-83.5
X48.72Y-73.5
X49.0Y-15.0
X49.0Y-96.0
X49.0Y-105.0
X49.0Y-114.0
X49.0Y-123.0
X49.0Y-132.0
X49.0Y-159.0
X49.0Y-168.0
X49.0Y-177.0
X49.0Y-186.0
X49.0Y-195.0
X49.0Y-204.0
X49.174Y-71.674
X49.5Y-88.9
X49.774Y-71.074
X50.5Y-90.727
X51.0Y-190.35
X51.0Y-194.15
X52.076Y-67.076
X52.5Y-4.2
X52.5Y-72.5
X53.665Y-71.335
X53.674Y-67.174
X55.0Y-36.95
X55.5Y-38.15
X56.5Y-120.0
X57.0Y-84.0
X58.0Y-69.0
X58.0Y-78.0
X58.0Y-96.0
X58.0Y-105.0
X58.0Y-114.0
X58.0Y-141.0
X58.0Y-159.0
X58.0Y-168.0
X58.0Y-177.0
X58.0Y-186.0
X58.0Y-195.0
X58.0Y-204.0
X58.499Y-89.227
X58.5Y-42.0
X59.5Y-116.9
X59.873Y-88.627
X60.222Y-87.278
X60.5Y-42.0
X61.091Y-129.091
X61.373Y-90.127
X61.722Y-88.778
X62.373Y-91.127
X62.5Y-82.5
X62.5Y-83.775
X62.5Y-85.0
X62.5Y-85.9
X62.5Y-129.5
X63.222Y-90.278
X63.341Y-126.841
X63.408Y-81.908
X63.5Y-77.5
X64.0Y-36.95
X64.146Y-90.354
X64.5Y-38.15
X65.0Y-81.165
X65.0Y-127.0
X65.0Y-146.1
X65.5Y-28.8
X65.5Y-31.7
X65.5Y-144.9
X65.934Y-78.9
X66.0Y-76.5
X66.174Y-77.326
X66.5Y-79.5
X66.876Y-75.776
X67.0Y-24.0
X67.0Y-26.1
X67.0Y-105.0
X67.0Y-114.0
X67.0Y-132.0
X67.0Y-141.0
X67.0Y-159.0
X67.0Y-168.0
X67.0Y-177.0
X67.0Y-186.0
X67.0Y-190.35
X67.0Y-194.15
X67.651Y-81.349
X67.674Y-76.674
X67.674Y-78.826
X68.0Y-91.1
X68.277Y-84.374
X68.469Y-75.879
X68.5Y-79.5
X68.826Y-81.674
X69.674Y-74.674
X69.876Y-119.276
X70.326Y-83.174
X70.552Y-79.104
X70.654Y-78.154
X71.224Y-79.776
X71.479Y-76.479
X72.0Y-69.5
X72.0Y-190.35
X72.0Y-192.0
X72.045Y-75.914
X72.1Y-149.9
X72.2Y-151.1
X72.611Y-75.348
X72.724Y-81.276
X73.0Y-119.0
X73.316Y-81.814
X73.5Y-71.0
X73.826Y-68.826
X74.0Y-173.5
X74.0Y-175.5
X74.326Y-87.174
X74.979Y-72.979
X75.9Y-68.5
X76.0Y-105.0
X76.0Y-132.0
X76.0Y-141.0
X76.0Y-159.0
X76.0Y-168.0
X76.0Y-177.0
X76.0Y-195.0
X76.326Y-89.174
X76.5Y-44.1
X76.5Y-65.9
X76.5Y-67.715
X77.026Y-64.526
X77.128Y-78.628
X77.5Y-43.5
X77.5Y-67.715
X77.5Y-90.5
X77.502Y-73.002
X77.728Y-78.028
X77.826Y-24.826
X77.85Y-63.0
X78.0Y-31.7
X78.0Y-39.0
X78.0Y-65.9
X78.0Y-87.4
X78.0Y-88.6
X78.1Y-69.0
X78.124Y-37.376
X78.218Y-89.37
X78.5Y-77.428
X78.5Y-169.0
X78.5Y-170.2
X78.5Y-173.5
X78.8Y-42.0
X79.0Y-87.4
X79.0Y-90.0
X79.4Y-31.1
X79.4Y-39.5
X79.4Y-64.0
X79.5Y-92.5
X79.707Y-75.2
X79.886Y-67.214
X80.0Y-24.5
X80.0Y-73.4
X80.0Y-175.0
X80.124Y-87.124
X81.0Y-86.4
X81.0Y-106.5
X81.1Y-31.5
X81.1Y-39.0
X81.1Y-40.0
X81.1Y-44.0
X82.0Y-40.0
X82.5Y-28.8
X82.5Y-32.1
X82.5Y-63.0
X82.5Y-65.0
X82.5Y-104.0
X82.674Y-92.826
X83.0Y-190.35
X83.0Y-194.15
X83.574Y-28.574
X84.0Y-65.0
X84.0Y-72.5
X84.326Y-104.826
X84.488Y-97.385
X84.934Y-72.434
X85.0Y-98.0
X85.0Y-114.0
X85.0Y-132.0
X85.0Y-141.0
X85.0Y-159.0
X85.0Y-168.0
X85.0Y-177.0
X85.0Y-186.0
X85.0Y-195.0
X85.5Y-73.0
X85.5Y-74.6
X85.976Y-24.476
X86.5Y-99.5
X86.797Y-96.62
X86.857Y-77.281
X86.92Y-73.4
X87.0Y-100.5
X87.174Y-97.326
X87.5Y-74.0
X87.5Y-98.5
X87.5Y-105.5
X87.574Y-24.574
X87.993Y-76.993
X88.0Y-79.5
X88.0Y-102.0
X88.0Y-106.7
X88.5Y-104.6
X88.674Y-72.326
X88.776Y-76.776
X89.0Y-103.0
X89.184Y-74.816
X89.491Y-69.383
X89.5Y-58.0
X89.5Y-60.6
X89.955Y-74.6
X90.0Y-70.0
X90.091Y-67.5
X90.091Y-68.5
X91.0Y-74.0
X91.0Y-146.1
X91.5Y-100.5
X91.5Y-103.6
X91.684Y-77.316
X92.0Y-144.5
X92.193Y-95.9
X92.25Y-76.75
X92.426Y-24.426
X92.5Y-102.4
X92.866Y-71.554
X93.326Y-95.674
X93.341Y-96.841
X93.71Y-70.71
X94.0Y-25.0
X94.0Y-114.0
X94.0Y-123.0
X94.0Y-132.0
X94.0Y-141.0
X94.0Y-159.0
X94.0Y-168.0
X94.0Y-177.0
X94.0Y-186.0
X94.0Y-195.0
X94.341Y-95.841
X94.624Y-72.624
X95.0Y-77.0
X95.5Y-126.35
X95.5Y-130.15
X95.624Y-98.124
X96.0Y-51.1
X96.0Y-78.0
X96.2Y-49.9
X96.5Y-71.0
X97.0Y-49.9
X97.0Y-51.1
X97.0Y-65.5
X97.124Y-96.624
X97.282Y-33.218
X97.5Y-40.0
X97.5Y-41.0
X97.69Y-96.059
X98.131Y-32.369
X98.624Y-95.124
X99.0Y-64.5
X99.0Y-190.35
X99.0Y-194.15
X99.5Y-3.6
X99.5Y-169.0
X99.5Y-170.2
X99.688Y-41.0
X99.8Y-58.0
X99.96Y-64.46
X100.0Y-40.0
X100.0Y-90.0
X100.35Y-5.0
X100.4Y-58.6
X101.15Y-6.4
X101.826Y-102.174
X102.0Y-11.997
X102.0Y-15.7
X102.0Y-88.0
X102.151Y-59.4
X102.5Y-57.9
X103.0Y-41.5
X103.0Y-59.4
X103.0Y-87.0
X103.0Y-114.0
X103.0Y-132.0
X103.0Y-141.0
X103.0Y-159.0
X103.0Y-168.0
X103.0Y-177.0
X103.0Y-186.0
X103.0Y-195.0
X103.124Y-90.624
X103.331Y-40.0
X103.331Y-42.5
X103.5Y-1.4
X103.5Y-3.5
X104.0Y-63.5
X104.0Y-170.2
X104.033Y-108.416
X104.05Y-107.55
X104.055Y-60.93
X104.125Y-57.9
X104.125Y-60.0
X104.5Y-106.1
X104.6Y-64.5
X105.0Y-32.5
X105.2Y-68.0
X105.245Y-65.551
X105.325Y-41.426
X105.325Y-60.0
X105.325Y-61.0
X105.5Y-40.0
X105.624Y-88.124
X105.925Y-58.5
X106.0Y-42.6
X106.125Y-60.0
X106.5Y-87.4
X107.0Y-168.5
X107.6Y-58.0
X107.781Y-29.781
X108.424Y-100.85
X109.169Y-101.142
X111.0Y-33.5
X112.0Y-6.0
X112.0Y-15.0
X112.0Y-114.0
X112.0Y-123.0
X112.0Y-132.0
X112.0Y-141.0
X112.0Y-159.0
X112.0Y-177.0
X112.0Y-186.0
X112.0Y-195.0
X112.281Y-25.281
X113.808Y-75.808
X114.0Y-23.5
X114.152Y-30.152
X114.403Y-12.597
X114.5Y-75.0
X115.5Y-189.9
X115.5Y-194.15
X115.531Y-22.031
X115.534Y-11.466
X115.902Y-28.402
X116.0Y-62.0
X116.0Y-62.8
X116.247Y-73.935
X116.312Y-60.2
X116.312Y-61.0
X116.4Y-85.0
X116.4Y-92.1
X117.0Y-87.4
X117.0Y-146.1
X117.124Y-93.124
X117.512Y-73.5
X117.652Y-26.652
X118.0Y-144.9
X118.326Y-72.826
X118.5Y-60.2
X118.5Y-61.0
X118.5Y-62.0
X118.624Y-75.124
X119.0Y-71.5
X119.4Y-73.5
X119.4Y-88.0
X119.4Y-91.5
X119.4Y-92.5
X119.5Y-27.4
X119.5Y-105.5
X119.5Y-107.5
X119.9Y-104.5
X119.9Y-106.5
X119.9Y-116.9
X120.0Y-58.56
X120.0Y-101.5
X120.0Y-103.6
X121.0Y-6.0
X121.0Y-24.0
X121.0Y-101.5
X121.0Y-103.6
X121.0Y-132.0
X121.0Y-159.0
X121.0Y-168.0
X121.0Y-177.0
X121.0Y-186.0
X121.0Y-195.0
X121.4Y-30.5
X121.4Y-37.0
X121.6Y-117.0
X121.9Y-29.5
X122.0Y-101.5
X122.0Y-103.6
X122.0Y-144.9
X122.0Y-146.1
X122.5Y-28.6
X122.6Y-88.0
X122.6Y-91.5
X122.6Y-106.5
X122.6Y-107.5
X123.0Y-76.5
X123.0Y-85.0
X123.0Y-101.6
X123.0Y-105.5
X123.1Y-29.5
X123.1Y-30.5
X123.1Y-37.0
X123.826Y-114.674
X124.5Y-16.0
X124.5Y-77.0
X124.5Y-87.4
X124.5Y-88.6
X124.5Y-92.5
X124.674Y-113.826
X125.5Y-1.4
X125.5Y-2.6
X125.5Y-93.0
X125.737Y-15.263
X128.5Y-104.5
X129.012Y-105.115
X130.0Y-6.0
X130.0Y-15.0
X130.0Y-24.0
X130.0Y-78.0
X130.0Y-104.0
X130.0Y-106.0
X130.0Y-114.0
X130.0Y-123.0
X130.0Y-132.0
X130.0Y-159.0
X130.0Y-168.0
X130.0Y-177.0
X130.0Y-186.0
X130.0Y-195.0
X131.0Y-105.0
X131.0Y-190.35
X131.0Y-194.15
X131.471Y-43.599
X131.488Y-58.481
X131.5Y-42.0
X131.5Y-42.8
X131.5Y-44.5
X131.5Y-46.0
X131.911Y-59.16
X132.7Y-44.5
X132.912Y-42.413
X133.0Y-58.5
X133.0Y-60.4
X133.0Y-62.7
X133.0Y-64.3
X133.326Y-109.174
X133.724Y-59.276
X134.0Y-108.0
X134.174Y-42.826
X134.774Y-43.426
X135.0Y-62.7
X135.0Y-64.5
X135.0Y-100.5
X135.5Y-60.5
X136.674Y-106.174
X136.869Y-99.869
X137.174Y-45.826
X138.717Y-99.717
X139.0Y-6.0
X139.0Y-15.0
X139.0Y-24.0
X139.0Y-78.0
X139.0Y-132.0
X139.0Y-159.0
X139.0Y-168.0
X139.0Y-177.0
X139.0Y-186.0
X139.0Y-195.0
X140.674Y-102.174
X140.826Y-100.326
X141.826Y-99.326
X142.0Y-93.869
X142.674Y-100.174
X143.674Y-99.174
X146.0Y-88.6
X146.5Y-93.0
X146.5Y-99.0
X146.5Y-101.0
X146.5Y-102.0
X146.5Y-103.0
X146.5Y-121.5
X146.5Y-123.0
X146.5Y-133.6
X147.0Y-88.5
X147.271Y-61.229
X147.5Y-144.9
X147.5Y-146.5
X147.5Y-189.9
X147.5Y-194.15
X148.0Y-6.0
X148.0Y-15.0
X148.0Y-24.0
X148.0Y-159.0
X148.0Y-168.0
X148.0Y-177.0
X148.0Y-186.0
X148.1Y-133.5
X149.5Y-121.5
X149.7Y-94.0
X149.7Y-99.0
X149.7Y-101.0
X149.7Y-102.0
X150.0Y-40.0
X150.0Y-103.0
X150.29Y-64.5
X150.5Y-92.0
X150.5Y-120.9
X150.819Y-61.181
X150.891Y-44.109
X151.0Y-39.0
X151.0Y-126.5
X151.5Y-45.0
X151.5Y-45.8
X151.674Y-92.326
X153.069Y-63.431
X154.0Y-50.824
X154.141Y-126.359
X154.5Y-76.0
X155.876Y-50.224
X156.0Y-44.0
X156.0Y-75.0
X156.0Y-80.0
X156.24Y-47.76
X156.4Y-86.5
X156.4Y-98.0
X156.4Y-99.0
X156.4Y-100.0
X156.4Y-101.0
X156.4Y-102.0
X156.4Y-103.0
X156.536Y-44.6
X157.0Y-6.0
X157.0Y-15.0
X157.0Y-24.0
X157.0Y-53.9
X157.0Y-60.0
X157.0Y-62.9
X157.0Y-120.9
X157.0Y-122.1
X157.0Y-141.0
X157.0Y-159.0
X157.0Y-168.0
X157.0Y-177.0
X157.0Y-186.0
X157.0Y-195.0
X157.218Y-45.282
X157.6Y-86.5
X157.6Y-87.3
X157.6Y-98.0
X157.6Y-99.0
X157.6Y-101.0
X157.91Y-55.5
X157.91Y-63.5
X158.5Y-77.369
X158.51Y-54.49
X159.11Y-63.5
X159.11Y-64.3
X159.326Y-69.674
X159.5Y-76.0
X159.5Y-100.0
X160.0Y-51.0
X160.6Y-50.0
X161.207Y-82.707
X161.351Y-40.2
X161.5Y-41.8
X161.5Y-53.0
X161.5Y-62.9
X161.549Y-102.1
X162.487Y-32.5
X163.0Y-72.5
X163.0Y-190.35
X163.0Y-194.15
X163.149Y-102.851
X163.674Y-79.674
X163.688Y-32.5
X163.74Y-55.26
X164.5Y-80.6
X165.0Y-79.4
X165.369Y-71.369
X165.5Y-50.5
X166.0Y-6.0
X166.0Y-15.0
X166.0Y-24.0
X166.0Y-33.0
X166.0Y-39.4
X166.0Y-43.5
X166.0Y-48.468
X166.0Y-51.0
X166.0Y-70.5
X166.0Y-114.0
X166.0Y-132.0
X166.0Y-159.0
X166.0Y-168.0
X166.0Y-177.0
X166.0Y-195.0
X167.15Y-109.638
X167.207Y-76.707
X168.35Y-109.638
X170.0Y-80.6
X170.0Y-144.5
X170.0Y-146.5
X170.046Y-72.4
X171.066Y-65.672
X171.5Y-65.0
X172.066Y-64.434
X174.826Y-63.326
X175.0Y-6.0
X175.0Y-15.0
X175.0Y-24.0
X175.0Y-33.0
X175.0Y-68.5
X175.0Y-114.0
X175.0Y-123.0
X175.0Y-159.0
X175.0Y-168.0
X175.0Y-177.0
X175.0Y-186.0
X175.0Y-195.0
X175.5Y-62.5
X176.342Y-42.2
X176.5Y-102.1
X176.674Y-69.326
X177.5Y-70.0
X178.0Y-64.5
X178.0Y-74.0
X178.0Y-76.5
X178.0Y-80.0
X178.0Y-100.5
X178.0Y-141.567
X178.191Y-42.309
X178.3Y-73.0
X178.3Y-81.0
X178.3Y-82.5
X178.3Y-83.5
X178.3Y-101.5
X178.3Y-108.5
X178.3Y-109.5
X178.9Y-117.0
X179.0Y-63.5
X179.0Y-139.967
X179.0Y-190.35
X179.0Y-194.15
X179.5Y-58.5
X179.5Y-82.0
X179.607Y-61.707
X180.1Y-117.0
X180.835Y-101.185
X181.0Y-60.0
X181.0Y-61.6
X181.0Y-70.0
X181.9Y-61.0
X181.9Y-62.5
X181.9Y-64.5
X181.9Y-68.5
X181.9Y-69.5
X183.0Y-103.5
X183.1Y-61.0
X183.1Y-62.5
X183.1Y-64.0
X183.1Y-65.0
X183.1Y-67.5
X183.1Y-69.0
X183.1Y-69.8
X183.1Y-73.0
X183.1Y-74.0
X183.1Y-76.5
X183.1Y-80.0
X183.1Y-81.0
X183.1Y-83.5
X183.217Y-51.783
X183.293Y-86.707
X183.5Y-48.468
X183.5Y-50.5
X183.842Y-38.158
X184.0Y-6.0
X184.0Y-15.0
X184.0Y-24.0
X184.0Y-33.0
X184.0Y-78.0
X184.0Y-105.0
X184.0Y-114.0
X184.0Y-132.0
X184.0Y-159.0
X184.0Y-168.0
X184.0Y-177.0
X184.0Y-186.0
X184.0Y-195.0
X184.174Y-85.326
X184.5Y-37.0
X184.566Y-51.434
X185.124Y-82.324
X185.5Y-68.4
X185.5Y-77.1
X185.5Y-79.4
X186.5Y-41.0
X187.392Y-41.708
X188.4Y-42.716
X188.691Y-41.309
X189.398Y-42.017
X189.998Y-42.617
X190.0Y-93.087
X191.0Y-51.5
X192.0Y-139.967
X192.0Y-141.567
X192.0Y-144.9
X192.0Y-146.1
X193.0Y-6.0
X193.0Y-15.0
X193.0Y-24.0
X193.0Y-78.0
X193.0Y-114.0
X193.0Y-123.0
X193.0Y-132.0
X193.0Y-159.0
X193.0Y-168.0
X193.0Y-177.0
X193.0Y-186.0
X193.0Y-195.0
X193.5Y-51.692
X193.7Y-49.067
X194.0Y-81.6
X194.5Y-52.292
X195.0Y-190.35
X195.0Y-194.15
X195.751Y-141.668
X195.8Y-42.0
X195.8Y-43.0
X195.8Y-45.5
X195.8Y-47.0
X196.5Y-79.4
X197.0Y-42.0
X197.0Y-43.0
X197.0Y-46.5
X197.0Y-51.093
X197.0Y-69.0
X197.0Y-144.5
X197.0Y-146.1
X198.0Y-47.1
X198.9Y-70.5
X199.0Y-73.0
X199.0Y-75.9
X199.0Y-77.1
X200.5Y-68.5
X202.0Y-6.0
X202.0Y-15.0
X202.0Y-24.0
X202.0Y-114.0
X202.0Y-123.0
X202.0Y-132.0
X202.0Y-159.0
X202.0Y-168.0
X202.0Y-177.0
X202.0Y-186.0
X202.0Y-195.0
X207.326Y-42.674
X208.5Y-44.0
X209.0Y-47.5
X209.174Y-42.826
X209.5Y-63.9
X210.276Y-45.624
X210.4Y-47.0
X210.4Y-57.5
X210.4Y-64.5
X211.0Y-6.0
X211.0Y-15.0
X211.0Y-24.0
X211.0Y-94.08
X211.0Y-109.5
X211.0Y-123.0
X211.0Y-132.0
X211.0Y-159.0
X211.0Y-168.0
X211.0Y-177.0
X211.0Y-186.0
X211.0Y-190.35
X211.0Y-194.15
X211.6Y-47.6
X211.6Y-64.0
X211.6Y-65.5
X212.9Y-63.5
X212.912Y-44.6
X213.0Y-96.62
X213.0Y-107.0
X213.512Y-44.0
X214.1Y-57.5
X214.174Y-44.826
X214.37Y-63.27
X214.5Y-48.0
X217.5Y-49.0
X217.5Y-51.5
X220.0Y-6.0
X220.0Y-15.0
X220.0Y-24.0
X220.0Y-42.0
X220.0Y-51.0
X220.0Y-69.0
X220.0Y-114.0
X220.0Y-132.0
X220.0Y-141.0
X220.0Y-159.0
X220.0Y-168.0
X220.0Y-177.0
X220.0Y-195.0
X220.5Y-60.13
X220.606Y-46.743
X220.976Y-62.154
X221.0Y-61.33
X221.5Y-80.6
X222.5Y-78.4
X222.5Y-144.9
X222.5Y-146.1
X223.0Y-66.48
X223.0Y-67.68
X226.0Y-60.0
X226.0Y-127.0
X226.0Y-129.0
X226.0Y-144.5
X226.0Y-151.1
X226.5Y-58.0
X227.0Y-190.35
X227.0Y-194.15
X228.0Y-59.5
X228.0Y-61.5
X228.5Y-39.2
X229.0Y-15.0
X229.0Y-24.0
X229.0Y-38.0
X229.0Y-42.0
X229.0Y-51.0
X229.0Y-69.0
X229.0Y-78.0
X229.0Y-87.0
X229.0Y-96.0
X229.0Y-105.0
X229.0Y-114.0
X229.0Y-141.0
X229.0Y-159.0
X229.0Y-177.0
X229.0Y-186.0
X229.0Y-195.0
X229.5Y-58.86
X230.0Y-77.0
X230.388Y-60.56
X230.45Y-79.0
X230.45Y-80.0
X231.65Y-77.0
X231.65Y-79.0
X232.0Y-80.0
X236.741Y-116.241
X238.0Y-6.0
X238.0Y-24.0
X238.0Y-42.0
X238.0Y-51.0
X238.0Y-60.0
X238.0Y-78.0
X238.0Y-87.0
X238.0Y-96.0
X238.0Y-105.0
X238.0Y-114.0
X238.0Y-123.0
X238.0Y-141.0
X238.0Y-159.0
X238.0Y-168.0
X238.0Y-177.0
X238.0Y-186.0
X238.0Y-195.0
X240.5Y-115.0
X243.0Y-190.35
X243.0Y-194.15
X243.281Y-114.781
X245.5Y-46.637
X246.0Y-38.6
X246.0Y-114.0
X246.5Y-37.4
X247.0Y-6.0
X247.0Y-15.0
X247.0Y-33.0
X247.0Y-42.0
X247.0Y-51.0
X247.0Y-60.0
X247.0Y-69.0
X247.0Y-78.0
X247.0Y-87.0
X247.0Y-96.0
X247.0Y-105.0
X247.0Y-123.0
X247.0Y-141.0
X247.0Y-159.0
X247.0Y-168.0
X247.0Y-177.0
X247.0Y-186.0
X247.0Y-195.0
X247.5Y-47.5
X249.5Y-144.9
X250.0Y-113.0
X250.5Y-146.1
X253.0Y-112.5
X253.555Y-116.364
X254.209Y-115.709
X255.209Y-114.709
X256.0Y-6.0
X256.0Y-15.0
X256.0Y-24.0
X256.0Y-42.0
X256.0Y-51.0
X256.0Y-60.0
X256.0Y-69.0
X256.0Y-78.0
X256.0Y-87.0
X256.0Y-96.0
X256.0Y-105.0
X256.0Y-123.0
X256.0Y-141.0
X256.0Y-159.0
X256.0Y-168.0
X256.0Y-177.0
X256.0Y-186.0
X256.0Y-195.0
X256.055Y-113.864
X256.5Y-111.5
X256.5Y-129.5
X256.5Y-136.6
X256.709Y-113.209
X257.5Y-112.5
X257.5Y-131.5
X257.5Y-136.6
X258.5Y-111.6
X259.0Y-190.35
X259.0Y-194.15
X265.0Y-6.0
X265.0Y-15.0
X265.0Y-24.0
X265.0Y-33.0
X265.0Y-42.0
X265.0Y-51.0
X265.0Y-60.0
X265.0Y-69.0
X265.0Y-78.0
X265.0Y-87.0
X265.0Y-96.0
X265.0Y-105.0
X265.0Y-141.0
X265.0Y-150.0
X265.0Y-159.0
X265.0Y-168.0
X265.0Y-177.0
X265.0Y-186.0
X265.0Y-195.0
X271.4Y-196.4
X271.4Y-197.2
X271.4Y-198.0
X271.4Y-199.0
X271.4Y-199.8
X271.4Y-200.6
X271.4Y-201.4
X272.0Y-110.4
X272.0Y-114.5
X272.6Y-201.5
X273.2Y-200.5
X273.8Y-199.5
X274.0Y-6.0
X274.0Y-15.0
X274.0Y-24.0
X274.0Y-33.0
X274.0Y-42.0
X274.0Y-51.0
X274.0Y-60.0
X274.0Y-69.0
X274.0Y-78.0
X274.0Y-87.0
X274.0Y-96.0
X274.0Y-105.0
X274.0Y-110.4
X274.0Y-114.5
X274.0Y-123.0
X274.0Y-132.0
X274.4Y-198.757
X275.0Y-198.0
X275.6Y-197.0
X276.2Y-196.0
X283.0Y-6.0
X283.0Y-15.0
X283.0Y-24.0
X283.0Y-33.0
X283.0Y-42.0
X283.0Y-51.0
X283.0Y-60.0
X283.0Y-69.0
X283.0Y-78.0
X283.0Y-87.0
X283.0Y-96.0
X283.0Y-105.0
X283.0Y-123.0
X283.0Y-132.0
X283.0Y-141.0
X283.0Y-150.0
X283.0Y-159.0
X283.0Y-168.0
X283.0Y-177.0
X283.0Y-186.0
X283.0Y-195.0
T2
X49.795Y-74.442
X49.795Y-75.968
X50.557Y-73.68
X50.557Y-75.205
X50.557Y-76.73
X51.32Y-74.442
X51.32Y-75.968
X52.082Y-73.68
X52.082Y-75.205
X52.082Y-76.73
X52.845Y-74.442
X52.845Y-75.968
T5
X16.19Y-36.0
X23.81Y-36.0
X120.19Y-18.185
X120.19Y-25.805
X122.73Y-18.185
X122.73Y-25.805
X125.27Y-18.185
X125.27Y-25.805
X125.49Y-66.185
X125.49Y-73.805
X127.81Y-18.185
X127.81Y-25.805
X128.03Y-66.185
X128.03Y-73.805
X130.57Y-66.185
X130.57Y-73.805
X133.11Y-66.185
X133.11Y-73.805
X135.65Y-66.185
X135.65Y-73.805
X138.19Y-66.185
X138.19Y-73.805
X140.73Y-66.185
X140.73Y-73.805
X143.27Y-66.185
X143.27Y-73.805
X145.81Y-66.185
X145.81Y-73.805
X148.35Y-66.185
X148.35Y-73.805
X150.89Y-66.185
X150.89Y-73.805
X153.43Y-66.185
X153.43Y-73.805
X155.97Y-66.185
X155.97Y-73.805
X158.51Y-66.185
X158.51Y-73.805
X233.6Y-117.69
X233.6Y-125.31
X236.14Y-117.69
X236.14Y-125.31
X238.68Y-117.69
X238.68Y-125.31
X241.22Y-117.69
X241.22Y-125.31
X243.76Y-117.69
X243.76Y-125.31
X246.3Y-117.69
X246.3Y-125.31
X248.84Y-117.69
X248.84Y-125.31
X251.38Y-117.69
X251.38Y-125.31
X253.92Y-117.69
X253.92Y-125.31
X256.46Y-117.69
X256.46Y-125.31
X259.0Y-117.69
X259.0Y-125.31
X261.54Y-117.69
X261.54Y-125.31
X264.08Y-117.69
X264.08Y-125.31
X266.62Y-117.69
X266.62Y-125.31
T6
X15.0Y-105.5
X20.0Y-105.5
X21.95Y-145.5
X21.95Y-148.0
X21.95Y-150.5
X47.95Y-145.5
X47.95Y-148.0
X47.95Y-150.5
X73.95Y-145.5
X73.95Y-148.0
X73.95Y-150.5
X99.95Y-145.5
X99.95Y-148.0
X99.95Y-150.5
X125.95Y-145.5
X125.95Y-148.0
X125.95Y-150.5
X151.95Y-145.5
X151.95Y-148.0
X151.95Y-150.5
X167.75Y-123.5
X167.75Y-126.0
X167.75Y-128.5
X177.95Y-145.5
X177.95Y-148.0
X177.95Y-150.5
X182.25Y-123.5
X182.25Y-128.5
X203.95Y-145.5
X203.95Y-148.0
X203.95Y-150.5
X215.5Y-89.0
X215.5Y-91.54
X215.5Y-94.08
X215.5Y-96.62
X215.5Y-99.16
X215.5Y-101.7
X215.5Y-104.24
X215.5Y-106.78
X218.0Y-55.65
X218.0Y-58.19
X218.0Y-60.73
X218.0Y-63.27
X218.0Y-65.81
X218.0Y-68.35
X229.95Y-145.5
X229.95Y-148.0
X229.95Y-150.5
X232.0Y-54.38
X232.0Y-56.92
X232.0Y-59.46
X232.0Y-62.0
X232.0Y-64.54
X232.0Y-67.08
X232.0Y-69.62
X255.95Y-145.5
X255.95Y-148.0
X255.95Y-150.5
T7
X21.75Y-123.75
X21.75Y-128.25
X21.75Y-187.75
X21.75Y-192.25
X28.25Y-123.75
X28.25Y-128.25
X28.25Y-187.75
X28.25Y-192.25
X37.75Y-123.75
X37.75Y-128.25
X37.75Y-187.75
X37.75Y-192.25
X44.25Y-123.75
X44.25Y-128.25
X44.25Y-187.75
X44.25Y-192.25
X53.75Y-123.75
X53.75Y-128.25
X53.75Y-187.75
X53.75Y-192.25
X60.25Y-123.75
X60.25Y-128.25
X60.25Y-187.75
X60.25Y-192.25
X69.75Y-123.75
X69.75Y-128.25
X69.75Y-187.75
X69.75Y-192.25
X76.25Y-123.75
X76.25Y-128.25
X76.25Y-187.75
X76.25Y-192.25
X85.75Y-123.75
X85.75Y-128.25
X85.75Y-187.75
X85.75Y-192.25
X92.25Y-123.75
X92.25Y-128.25
X92.25Y-187.75
X92.25Y-192.25
X101.75Y-123.75
X101.75Y-128.25
X101.75Y-187.75
X101.75Y-192.25
X108.25Y-123.75
X108.25Y-128.25
X108.25Y-187.75
X108.25Y-192.25
X117.75Y-123.75
X117.75Y-128.25
X117.75Y-187.75
X117.75Y-192.25
X124.25Y-123.75
X124.25Y-128.25
X124.25Y-187.75
X124.25Y-192.25
X133.75Y-123.75
X133.75Y-128.25
X133.75Y-187.75
X133.75Y-192.25
X140.25Y-123.75
X140.25Y-128.25
X140.25Y-187.75
X140.25Y-192.25
X149.75Y-187.75
X149.75Y-192.25
X156.25Y-187.75
X156.25Y-192.25
X165.75Y-187.75
X165.75Y-192.25
X172.25Y-187.75
X172.25Y-192.25
X181.75Y-187.75
X181.75Y-192.25
X188.25Y-187.75
X188.25Y-192.25
X197.75Y-187.75
X197.75Y-192.25
X204.25Y-187.75
X204.25Y-192.25
X213.75Y-187.75
X213.75Y-192.25
X220.25Y-187.75
X220.25Y-192.25
X229.75Y-187.75
X229.75Y-192.25
X236.25Y-187.75
X236.25Y-192.25
X245.75Y-187.75
X245.75Y-192.25
X252.25Y-187.75
X252.25Y-192.25
X261.75Y-187.75
X261.75Y-192.25
X268.25Y-187.75
X268.25Y-192.25
T3
X57.0Y-16.0G85X57.0Y-17.0
G05
X62.5Y-11.5G85X61.5Y-11.5
G05
X67.0Y-17.0G85X67.0Y-16.0
G05
X87.0Y-16.0G85X87.0Y-17.0
G05
X92.5Y-11.5G85X91.5Y-11.5
G05
X97.0Y-17.0G85X97.0Y-16.0
G05
T4
X25.68Y-6.88G85X25.68Y-7.98
G05
X25.68Y-11.31G85X25.68Y-11.91
G05
X34.32Y-6.88G85X34.32Y-7.98
G05
X34.32Y-11.31G85X34.32Y-11.91
G05
T8
X174.6Y-120.4G85X175.9Y-120.4
G05
X174.6Y-131.6G85X175.9Y-131.6
G05
T9
X28.8Y-143.6G85X29.1Y-143.6
G05
X28.8Y-152.4G85X29.1Y-152.4
G05
X54.8Y-143.6G85X55.1Y-143.6
G05
X54.8Y-152.4G85X55.1Y-152.4
G05
X80.8Y-143.6G85X81.1Y-143.6
G05
X80.8Y-152.4G85X81.1Y-152.4
G05
X106.8Y-143.6G85X107.1Y-143.6
G05
X106.8Y-152.4G85X107.1Y-152.4
G05
X132.8Y-143.6G85X133.1Y-143.6
G05
X132.8Y-152.4G85X133.1Y-152.4
G05
X158.8Y-143.6G85X159.1Y-143.6
G05
X158.8Y-152.4G85X159.1Y-152.4
G05
X184.8Y-143.6G85X185.1Y-143.6
G05
X184.8Y-152.4G85X185.1Y-152.4
G05
X210.8Y-143.6G85X211.1Y-143.6
G05
X210.8Y-152.4G85X211.1Y-152.4
G05
X236.8Y-143.6G85X237.1Y-143.6
G05
X236.8Y-152.4G85X237.1Y-152.4
G05
X262.8Y-143.6G85X263.1Y-143.6
G05
X262.8Y-152.4G85X263.1Y-152.4
G05
M30
