G04 #@! TF.GenerationSoftware,KiCad,Pcbnew,10.0.1*
G04 #@! TF.CreationDate,2026-09-15T09:20:58+02:00*
G04 #@! TF.ProjectId,T8Sequencer,54385365-7175-4656-9e63-65722e6b6963,rev?*
G04 #@! TF.SameCoordinates,Original*
G04 #@! TF.FileFunction,Profile,NP*
%FSLAX46Y46*%
G04 Gerber Fmt 4.6, Leading zero omitted, Abs format (unit mm)*
G04 Created by KiCad (PCBNEW 10.0.1) date 2026-09-15 09:20:58*
%MOMM*%
%LPD*%
G01*
G04 APERTURE LIST*
G04 #@! TA.AperFunction,Profile*
%ADD10C,0.100000*%
G04 #@! TD*
G04 #@! TA.AperFunction,Profile*
%ADD11C,0.120000*%
G04 #@! TD*
G04 APERTURE END LIST*
D10*
X0Y0D02*
X55500000Y0D01*
X0Y-210000000D02*
X0Y0D01*
X55500000Y0D02*
X55500000Y-7000000D01*
X68500000Y-7000000D02*
X85500000Y-7000000D01*
X98500000Y0D02*
X98500000Y-7000000D01*
X98500000Y0D02*
X290000000Y0D01*
X290000000Y0D02*
X290000000Y-210000000D01*
X290000000Y-210000000D02*
X0Y-210000000D01*
D11*
X89800000Y-7000000D02*
X85500000Y-7000000D01*
X89800000Y-8000000D02*
X89800000Y-7000000D01*
X90200000Y-8400000D02*
X93800000Y-8400000D01*
X94200000Y-7000000D02*
X98500000Y-7000000D01*
X94200000Y-8000000D02*
X94200000Y-7000000D01*
X90200000Y-8400000D02*
G75*
G02*
X89800000Y-8000000I0J400000D01*
G01*
X94200000Y-8000000D02*
G75*
G02*
X93800000Y-8400000I-400001J1D01*
G01*
X59800000Y-7000000D02*
X55500000Y-7000000D01*
X59800000Y-8000000D02*
X59800000Y-7000000D01*
X60200000Y-8400000D02*
X63800000Y-8400000D01*
X64200000Y-7000000D02*
X68500000Y-7000000D01*
X64200000Y-8000000D02*
X64200000Y-7000000D01*
X60200000Y-8400000D02*
G75*
G02*
X59800000Y-8000000I0J400000D01*
G01*
X64200000Y-8000000D02*
G75*
G02*
X63800000Y-8400000I-400001J1D01*
G01*
M02*
